# xmcd
#
# Track frame offsets:
#       150
#       11361
#       23143
#       29812
#       35974
#       48414
#       55998
#       68644
#       77414
#       94244
#       101225
#       109517
#       117611
#       126960
#       140737
#       150124
#       160121
#       170663
#       181788
#       189983
#       218011
#
# Disc length: 3458 seconds
#
# Revision: 1
# Processed by: cddbd v1.5.2PL0 Copyright (c) Steve Scherf et al.
# Submitted via: WaveLab 6.01
#
DISCID=1d0d8015
DTITLE=Various Artist - Verhalen over Prinsessen
DYEAR=2007
DGENRE=Luisterboek
TTITLE0=1 Jara is verlegen (Prinses Jara en Ridder Mischa - Nanda Roep)
TTITLE1=2 Prinses Jara (Prinses Jara en Ridder Mischa - Nanda Roep)
TTITLE2=3 Een Echte Prinses (Prinses Jara en Ridder Mischa - Nanda Roep)
TTITLE3=4 Een Paleis van Snoep (Prinses Jara en Ridder Mischa - Nanda Roep)
TTITLE4=5 Wijze Meester Mees (Prinses Jara en Ridder Mischa - Nanda Roep)
TTITLE5=6 Ridder Misha (Prinses Jara en Ridder Mischa - Nanda Roep)
TTITLE6=7 Rijm en Applaus (Prinses Jara en Ridder Mischa - Nanda Roep)
TTITLE7=8 De eindeloze Trap (Prinses Jara en Ridder Mischa - Nanda Roep)
TTITLE8=9 De Rekenkamer (Prinses Jara en Ridder Mischa - Nanda Roep)
TTITLE9=10 De Wereld (Prinses Jara en Ridder Mischa - Nanda Roep)
TTITLE10=11 De Draak Wordt Wakker (Prinses Jara en Ridder Mischa - Nanda Roep)
TTITLE11=12 Draak Arend (Prinses Jara en Ridder Mischa - Nanda Roep)
TTITLE12=13 Apples voor draak Arend (Prinses Jara en Ridder Mischa - Nanda Roep)
TTITLE13=14 Ridder Misha en Prinses Jara (Prinses Jara en Ridder Mischa - Nanda Roep)
TTITLE14=1 Het Plein (De Prinses op hek - Hans Kuyper)
TTITLE15=2 Een Prinses (De Prinses op hek - Hans Kuyper)
TTITLE16=3 De Zoen (De Prinses op hek - Hans Kuyper)
TTITLE17=4 De Ruzie (De Prinses op hek - Hans Kuyper)
TTITLE18=5 De Deken (De Prinses op hek - Hans Kuyper)
TTITLE19=Een Badpak Voor Prinses Charlotte - Charlotte A. Berebrouckx
TTITLE20=Een Super Speeltuin - Selma Noort
EXTD=
EXTT0=
EXTT1=
EXTT2=
EXTT3=
EXTT4=
EXTT5=
EXTT6=
EXTT7=
EXTT8=
EXTT9=
EXTT10=
EXTT11=
EXTT12=
EXTT13=
EXTT14=
EXTT15=
EXTT16=
EXTT17=
EXTT18=
EXTT19=
EXTT20=
PLAYORDER=
